FOR ENGLISH, PLEASE SCROLL DOWN!

~~~~~~~~~~~~~~~~~~~~~~~~~~~~~~~~~~~~~~~~~~~~~~~~~~~~~~~~~
VERHAALLIJN:
¯¯¯¯¯¯¯¯¯¯¯¯
Dean en Sam zijn nog altijd op pad om een manier te vinden die ervoor kan zorgen dat Dean niet over een jaar naar Hel wordt meegenomen. Ze proberen onderweg ook de ene demon na de andere terug naar hel te sturen. Ondertussen is de jacht op Sam geopend. Demonenjagers, zoals Gordon Walker, zijn van mening dat sinds Sam is teruggekeerd van de dood, hij niet 100% goedaardig meer is, en uiteindelijk de wereld ten einde zal brengen. Bij deze gevechten krijgen de twee broers hulp van Ruby, een voormalige heks die een sterk staaltje vechtkunst kan neerzetten. Dean verliest echter z'n vertrouwen in haar als ze erachter komen dat Ruby al sinds De Plaag leeft, en dus al eeuwenoud is. Ze geeft toe een demon te zijn, maar staat aan de goede kant. Dean wil haar niet meer om zich heen hebben, omdat hij van mening is dat Ruby juist hun plan om Deans ziel te redden tegen wilt houden.

~~~~~~~~~~~~~~~~~~~~~~~~~~~~~~~~~~~~~~~~~~~~~~~~~~~~~~~~~
- Titel: Supernatural S03D3 (retail)(ENG+NL SUBS) RHoek 2Lions-Team
- Bron: Retail
- Formaat: DVD5 
- Audio: 2.0
- Taal: Engels
- Ondertitelingen: Nederlands - Engels
- Menu: Ja 
- Extra's: Nee
- Cover: Nee
- Label: Nee
- Genre : Drama | Fantasy | Horror | Mystery | Thriller 

Met dank aan BasF1 - top gedaan!

IMDb: http://www.imdb.com/title/tt0460681/
Officiële website: http://supernatural.warnerbros.com/

~~~~~~~~~~~~~~~~~~~~~~~~~~~~~~~~~~~~~~~~~~~~~~~~~~~~~~~~~
STORY LINE:
¯¯¯¯¯¯¯¯¯¯¯
The season mainly focuses on trying to save Dean from his deal and tracking down the demons that were released from the gate. Along the way, the brothers meet a demon named Ruby, who has an interest in Sam and claims to be able to help save Dean. Also, they meet Bela Talbot, an "acquirer" and seller of occult objects, who is constantly a thorn in their side. The brothers eventually learn what demon holds Dean's contract; a being of great power named Lilith. The brothers, along with Ruby, track her down and attempt to kill her. Lilith is unable to stop Sam due to his mysterious abilities, however, Dean's contract expires and his soul is taken to Hell.

~~~~~~~~~~~~~~~~~~~~~~~~~~~~~~~~~~~~~~~~~~~~~~~~~~~~~~~~~
- Title: Supernatural S03D3 (retail)(ENG+NL SUBS) RHoek 2Lions-Team
- Source: Retail
- Format: DVD5 
- Audio: 2.0
- Language: Engels
- Subtitles: Dutch - English
- Menu: Yes 
- Extras: No
- Cover: No
- Label: No
- Genre : Drama | Fantasy | Horror | Mystery | Thriller 

Many thanks to BasF1! Well done!

IMDb: http://www.imdb.com/title/tt0460681/
Official website: http://supernatural.warnerbros.com/

~~~~~~~~~~~~~~~~~~~~~~~~~~~~~~~~~~~~~~~~~~~~~~~~~~~~~~~~~
VIDEO AND AUDIO INFORMATION
¯¯¯¯¯¯¯¯¯¯¯¯¯¯¯¯¯¯¯¯¯¯¯¯¯¯¯¯¯¯
Video
ID                               : 224 (0xE0)
Format                           : MPEG Video
Format version                   : Version 2
Format profile                   : Main@Main
Format settings, BVOP            : Yes
Format settings, Matrix          : Default
Duration                         : 27mn 42s
Bit rate mode                    : Variable
Bit rate                         : 4 680 Kbps
Width                            : 720 pixels
Height                           : 576 pixels
Display aspect ratio             : 16:9
Frame rate                       : 25.000 fps
Standard                         : PAL
Color space                      : YUV
Chroma subsampling               : 4:2:0
Bit depth                        : 8 bits
Bits/(Pixel*Frame)               : 0.451
Stream size                      : 928 MiB (91%)

Audio
ID                               : 128 (0x80)
Format                           : AC-3
Format/Info                      : Audio Coding 3
Mode extension                   : CM (complete main)
Duration                         : 27mn 42s
Bit rate mode                    : Constant
Bit rate                         : 384 Kbps
Channel(s)                       : 6 channels
Channel positions                : Front: L C R, Side: L R, LFE
Sampling rate                    : 48.0 KHz
Bit depth                        : 16 bits
Stream size                      : 76.1 MiB (7%)

*****************************************
Brought to you by 2Lions Team
******************************************